PathFileType	4	(X/Y/Z)	/Users/itak/Documents/Research/Walk-IL/dataset/trc/00199_00008.trc
DataRate	CameraRate	NumFrames	NumMarkers	Units	OrigDataRate	OrigDataStartFrame	OrigNumFrames
100.000000	100.000000	4	53	mm	100.000000	0	514
Frame#	Time	RPSI			LPSI			L3			STRN			T10			C7			CLAV			RBAK			LBAK			LSHO			LUPA			LAEL			LAOL			LWTS			LWPS			LFRA			LIFD			LHPS			LHTS			RSHO			RUPA			RAEL			RAOL			RWTS			RWPS			RFRA			RIFD			RHTS			RHPS			RBHD			LFHD			RFHD			LBHD			LHIP			RHIP			RASI			LASI			LKNE			LTHI			LANK			LTIP			LTOE			LMT1			LMT5			LHEE			RKNE			RTHI			RANK			RTIP			RTOE			RMT1			RMT5			RHEE			
		X1	Y1	Z1	X2	Y2	Z2	X3	Y3	Z3	X4	Y4	Z4	X5	Y5	Z5	X6	Y6	Z6	X7	Y7	Z7	X8	Y8	Z8	X9	Y9	Z9	X10	Y10	Z10	X11	Y11	Z11	X12	Y12	Z12	X13	Y13	Z13	X14	Y14	Z14	X15	Y15	Z15	X16	Y16	Z16	X17	Y17	Z17	X18	Y18	Z18	X19	Y19	Z19	X20	Y20	Z20	X21	Y21	Z21	X22	Y22	Z22	X23	Y23	Z23	X24	Y24	Z24	X25	Y25	Z25	X26	Y26	Z26	X27	Y27	Z27	X28	Y28	Z28	X29	Y29	Z29	X30	Y30	Z30	X31	Y31	Z31	X32	Y32	Z32	X33	Y33	Z33	X34	Y34	Z34	X35	Y35	Z35	X36	Y36	Z36	X37	Y37	Z37	X38	Y38	Z38	X39	Y39	Z39	X40	Y40	Z40	X41	Y41	Z41	X42	Y42	Z42	X43	Y43	Z43	X44	Y44	Z44	X45	Y45	Z45	X46	Y46	Z46	X47	Y47	Z47	X48	Y48	Z48	X49	Y49	Z49	X50	Y50	Z50	X51	Y51	Z51	X52	Y52	Z52	X53	Y53	Z53	

1	0	-1583.143798828125	1055.925659179688	-483.6182250976562	-1579.189086914062	1056.603637695312	-608.8701171875	-1579.353881835938	1092.315673828125	-544.0111083984375	-1321.92724609375	1300.2001953125	-542.8958740234375	-1613.989135742188	1248.226806640625	-552.5106201171875	-1548.271240234375	1517.815551757812	-562.8563842773438	-1348.887329101562	1413.5234375	-553.1256103515625	-1619.624145507812	1343.40087890625	-454.8387145996094	-1552.101440429688	1493.493896484375	-664.7664184570312	-1471.975219726562	1480.441650390625	-740.7976684570312	-1498.761474609375	1346.066040039062	-813.6800537109375	-1478.753295898438	1127.566650390625	-826.9638061523438	-1528.342163085938	1112.619140625	-755.492919921875	-1364.402709960938	898.5498046875	-790.124755859375	-1444.575073242188	875.5122680664062	-833.0940551757812	-1462.251342773438	1017.3828125	-839.26416015625	-1353.934448242188	723.9949340820312	-756.5834350585938	-1421.303344726562	806.7025756835938	-828.4737548828125	-1351.184814453125	820.2897338867188	-809.7446899414062	-1491.192504882812	1496.744995117188	-379.86376953125	-1510.411010742188	1429.80419921875	-310.2138977050781	-1508.9619140625	1139.054931640625	-254.2501678466797	-1522.552612304688	1131.744995117188	-351.578369140625	-1369.573852539062	913.5144653320312	-289.3117980957031	-1438.090087890625	896.2843017578125	-232.6478118896484	-1481.732177734375	1067.4560546875	-238.4817504882812	-1359.409790039062	722.7417602539062	-314.0146179199219	-1343.546020507812	819.30322265625	-285.1659851074219	-1409.942260742188	814.5822143554688	-237.8049468994141	-1511.514770507812	1677.624877929688	-496.9906005859375	-1328.272827148438	1735.455810546875	-599.68603515625	-1348.427612304688	1733.671142578125	-471.7735900878906	-1497.746337890625	1686.259033203125	-633.7680053710938	-1474.2275390625	992.6251220703125	-724.239990234375	-1436.104248046875	1013.988403320312	-353.70166015625	-1344.708374023438	1041.071533203125	-411.2872619628906	-1349.435424804688	1026.778198242188	-668.3578491210938	-1472.608764648438	493.703369140625	-676.8447265625	-1462.910766601562	635.37890625	-708.46728515625	-1564.848388671875	40.47902679443359	-665.3666381835938	-1517.122436523438	273.799072265625	-684.1870727539062	-1342.699951171875	38.99955749511719	-672.4638671875	-1386.863891601562	39.47775268554688	-617.3054809570312	-1463.158203125	34.78480529785156	-719.4873046875	-1605.293823242188	37.67902755737305	-589.2999877929688	-1455.450805664062	513.2047119140625	-376.7159729003906	-1392.958374023438	779.0130004882812	-347.4700622558594	-1548.849853515625	36.71321868896484	-383.3867797851562	-1450.646362304688	397.5588073730469	-394.8105773925781	-1323.872924804688	40.46867752075195	-412.7651977539062	-1378.599243164062	39.27149200439453	-459.2580871582031	-1436.819213867188	36.5815315246582	-346.1078491210938	-1596.7939453125	32.54664611816406	-452.0668029785156	
2	0.01	-1583.114868164062	1055.985961914062	-483.7548217773438	-1579.165161132812	1056.6298828125	-609.0287475585938	-1579.328979492188	1092.354858398438	-544.1766357421875	-1321.85986328125	1300.18017578125	-543.04052734375	-1613.8798828125	1248.26171875	-552.6917114257812	-1548.1533203125	1517.8447265625	-563.069580078125	-1348.80810546875	1413.494384765625	-553.2662353515625	-1619.504150390625	1343.440185546875	-455.0291137695312	-1551.94970703125	1493.513305664062	-664.9319458007812	-1471.793090820312	1480.427856445312	-741.0126953125	-1498.550048828125	1346.058349609375	-813.8825073242188	-1478.555297851562	1127.570556640625	-827.2060546875	-1528.192749023438	1112.597900390625	-755.7459106445312	-1364.119750976562	898.6039428710938	-790.367919921875	-1444.448364257812	875.552978515625	-833.3746337890625	-1462.1220703125	1017.396789550781	-839.525634765625	-1353.703125	723.998291015625	-756.8472290039062	-1421.076049804688	806.7103881835938	-828.7582397460938	-1350.959228515625	820.2864990234375	-809.969970703125	-1491.059814453125	1496.775634765625	-380.0915222167969	-1510.31787109375	1429.849731445312	-310.4148559570312	-1508.85498046875	1139.13134765625	-254.3437957763672	-1522.455322265625	1131.788330078125	-351.6818237304688	-1369.490356445312	913.5925903320312	-289.3840026855469	-1437.942749023438	896.3477172851562	-232.6889343261719	-1481.642456054688	1067.513061523438	-238.5587158203125	-1359.326416015625	722.8062133789062	-314.06298828125	-1343.474609375	819.3621215820312	-285.2467956542969	-1410.12646484375	814.56982421875	-237.681640625	-1511.266723632812	1677.658203125	-497.2295227050781	-1327.9462890625	1735.349853515625	-599.90185546875	-1348.142456054688	1733.594116210938	-472.0169982910156	-1497.542724609375	1686.309204101562	-633.99609375	-1474.22314453125	992.6241455078125	-724.4050903320312	-1436.088623046875	1013.975402832031	-353.8142395019531	-1344.68798828125	1041.043090820312	-411.392822265625	-1349.420654296875	1026.749267578125	-668.4945678710938	-1472.60498046875	493.6951293945312	-676.9218139648438	-1462.930419921875	635.3825073242188	-708.5745239257812	-1564.847290039062	40.48052597045898	-665.3751220703125	-1517.102661132812	273.7858276367188	-684.2109985351562	-1342.70556640625	38.99916076660156	-672.4620971679688	-1386.860595703125	39.47902297973633	-617.3027954101562	-1463.156982421875	34.7839241027832	-719.4891357421875	-1605.29443359375	37.67029190063477	-589.30078125	-1455.447631835938	513.19970703125	-376.7670288085938	-1392.8525390625	779.1932373046875	-347.6392211914062	-1548.847412109375	36.71249771118164	-383.3787231445312	-1450.636840820312	397.570068359375	-394.849609375	-1323.872680664062	40.46713638305664	-412.7662963867188	-1378.603271484375	39.27383422851562	-459.2574768066406	-1436.829711914062	36.57596588134766	-346.1097412109375	-1596.794555664062	32.53627777099609	-452.0671997070312	
3	0.02	-1583.083862304688	1056.068481445312	-483.9392395019531	-1579.12353515625	1056.661865234375	-609.23486328125	-1579.294921875	1092.399658203125	-544.3895874023438	-1321.758056640625	1300.155639648438	-543.2356567382812	-1613.751586914062	1248.3037109375	-552.923583984375	-1548.003784179688	1517.883422851562	-563.3487548828125	-1348.694946289062	1413.463134765625	-553.4497680664062	-1619.353637695312	1343.4873046875	-455.2744750976562	-1551.755004882812	1493.534301757812	-665.1566772460938	-1471.570556640625	1480.410034179688	-741.2794189453125	-1498.2939453125	1346.04541015625	-814.13671875	-1478.307250976562	1127.572998046875	-827.510986328125	-1527.994262695312	1112.570922851562	-756.0667114257812	-1363.76611328125	898.6609497070312	-790.669189453125	-1444.250610351562	875.5968017578125	-833.7250366210938	-1461.938354492188	1017.410034179688	-839.8563232421875	-1353.380249023438	724.0157470703125	-757.1744995117188	-1420.778564453125	806.71826171875	-829.1131591796875	-1350.661865234375	820.28955078125	-810.268798828125	-1490.895629882812	1496.812622070312	-380.3755798339844	-1510.204345703125	1429.902221679688	-310.6713256835938	-1508.718017578125	1139.221801757812	-254.4707794189453	-1522.3310546875	1131.838256835938	-351.8217468261719	-1369.3837890625	913.6856689453125	-289.4777526855469	-1437.762573242188	896.4262084960938	-232.7562561035156	-1481.521484375	1067.58154296875	-238.6660919189453	-1359.196655273438	722.896240234375	-314.1298828125	-1343.344360351562	819.439697265625	-285.3510131835938	-1410.294189453125	814.5677490234375	-237.5768432617188	-1510.948608398438	1677.699584960938	-497.5198974609375	-1327.557861328125	1735.221801757812	-600.1807861328125	-1347.780883789062	1733.500610351562	-472.3240966796875	-1497.279418945312	1686.361694335938	-634.281494140625	-1474.21044921875	992.6214599609375	-724.6112060546875	-1436.058471679688	1013.968566894531	-353.9629211425781	-1344.661010742188	1041.009033203125	-411.5263366699219	-1349.383422851562	1026.720336914062	-668.670654296875	-1472.594116210938	493.6833190917969	-677.0244750976562	-1462.958740234375	635.3914794921875	-708.7161865234375	-1564.846923828125	40.4805793762207	-665.3834838867188	-1517.076049804688	273.7699890136719	-684.2451782226562	-1342.713500976562	38.9981803894043	-672.4601440429688	-1386.858520507812	39.4797477722168	-617.2998657226562	-1463.156005859375	34.78269195556641	-719.4909057617188	-1605.296997070312	37.66165542602539	-589.303466796875	-1455.441284179688	513.194580078125	-376.8311462402344	-1392.800170898438	779.2522583007812	-347.7753295898438	-1548.84521484375	36.70943069458008	-383.3670043945312	-1450.62548828125	397.5843505859375	-394.8949279785156	-1323.872924804688	40.46612548828125	-412.7669372558594	-1378.607055664062	39.2761116027832	-459.2567749023438	-1436.842041015625	36.56990814208984	-346.1113586425781	-1596.796264648438	32.52346420288086	-452.0649719238281	
4	0.03	-1583.05078125	1056.169311523438	-484.1672973632812	-1579.060546875	1056.698364257812	-609.482666015625	-1579.249755859375	1092.446899414062	-544.6439819335938	-1321.616943359375	1300.1279296875	-543.4782104492188	-1613.611572265625	1248.350463867188	-553.1989135742188	-1547.827026367188	1517.930419921875	-563.6846923828125	-1348.54541015625	1413.433349609375	-553.672119140625	-1619.179077148438	1343.539672851562	-455.5656127929688	-1551.522583007812	1493.554443359375	-665.4376831054688	-1471.318481445312	1480.389038085938	-741.5843505859375	-1498.006469726562	1346.026733398438	-814.4327392578125	-1478.018798828125	1127.57275390625	-827.8668823242188	-1527.75048828125	1112.53955078125	-756.4431762695312	-1363.356811523438	898.7139282226562	-791.01416015625	-1443.97607421875	875.6388549804688	-834.1297607421875	-1461.698852539062	1017.420288085938	-840.2432861328125	-1352.961059570312	724.0528564453125	-757.5469970703125	-1420.415405273438	806.7254028320312	-829.5227661132812	-1350.2998046875	820.3021240234375	-810.6312866210938	-1490.707153320312	1496.853759765625	-380.7022399902344	-1510.07373046875	1429.958251953125	-310.9740295410156	-1508.556396484375	1139.319702148438	-254.6308288574219	-1522.183349609375	1131.890991210938	-351.9966125488281	-1369.25537109375	913.788330078125	-289.5921630859375	-1437.55810546875	896.5167846679688	-232.8547210693359	-1481.371215820312	1067.657836914062	-238.8043823242188	-1359.014038085938	723.0115966796875	-314.2154541015625	-1343.155639648438	819.5327758789062	-285.4762573242188	-1410.409912109375	814.58203125	-237.5165863037109	-1510.570434570312	1677.7490234375	-497.8468322753906	-1327.1298828125	1735.077392578125	-600.5176391601562	-1347.35546875	1733.396240234375	-472.6837158203125	-1496.961791992188	1686.41064453125	-634.6134643554688	-1474.185546875	992.6167602539062	-724.8515625	-1436.008666992188	1013.973022460938	-354.1447448730469	-1344.628295898438	1040.970703125	-411.683349609375	-1349.315795898438	1026.6953125	-668.8812255859375	-1472.571655273438	493.6676330566406	-677.151123046875	-1462.994506835938	635.4071655273438	-708.8886108398438	-1564.84716796875	40.4790153503418	-665.3905029296875	-1517.041137695312	273.7523498535156	-684.2908935546875	-1342.723022460938	38.99675750732422	-672.4578857421875	-1386.857788085938	39.47982788085938	-617.2970581054688	-1463.1552734375	34.78109359741211	-719.492431640625	-1605.301635742188	37.65429306030273	-589.3084106445312	-1455.432250976562	513.1897583007812	-376.9049377441406	-1392.798095703125	779.1832275390625	-347.8720092773438	-1548.843872070312	36.70285034179688	-383.3517456054688	-1450.613891601562	397.6006774902344	-394.9422607421875	-1323.874145507812	40.4663200378418	-412.7666625976562	-1378.610717773438	39.27813720703125	-459.2558898925781	-1436.8544921875	36.56428527832031	-346.1119995117188	-1596.7998046875	32.50879669189453	-452.0592346191406	
